<svg width="92" height="84" viewBox="0 0 92 84" fill="none" xmlns="http://www.w3.org/2000/svg">
<g filter="url(#filter0_d_1_27)">
<mask id="mask0_1_27" style="mask-type:luminance" maskUnits="userSpaceOnUse" x="4" y="0" width="84" height="76">
<path d="M87.1081 0H4V75.8111H87.1081V0Z" fill="white"/>
</mask>
<g mask="url(#mask0_1_27)">
<path d="M22.7409 13.1999V56.2443C22.7152 58.9503 21.7166 61.536 19.9621 63.4396C18.2076 65.3431 15.8389 66.4109 13.3704 66.4109C10.902 66.4109 8.53323 65.3431 6.77873 63.4396C5.02422 61.536 4.02567 58.9503 4 56.2443V13.1999C4.00161 10.4756 4.99017 7.86362 6.74826 5.93831C8.50636 4.013 10.89 2.93207 13.375 2.93324C14.929 2.92872 16.459 3.35284 17.8243 4.16659C17.8456 4.17659 17.8547 4.18881 17.8649 4.18881C17.8701 4.19514 17.8773 4.19911 17.8851 4.19992C18.6622 4.66471 19.3726 5.25251 19.9932 5.94437C20.8645 6.89585 21.5556 8.0266 22.0272 9.27171C22.4986 10.5168 22.7412 11.8518 22.7409 13.1999Z" fill="url(#paint0_linear_1_27)"/>
<path d="M44.1553 22.5V65.5333C44.1553 66.8823 43.913 68.2181 43.442 69.4643C42.9711 70.7107 42.281 71.843 41.4109 72.7969C40.5408 73.7508 39.5078 74.5074 38.3711 75.0237C37.2342 75.5399 36.0159 75.8056 34.7854 75.8056C33.5549 75.8056 32.3364 75.5399 31.1997 75.0237C30.0628 74.5074 29.0299 73.7508 28.1598 72.7969C27.2897 71.843 26.5995 70.7107 26.1286 69.4643C25.6578 68.2181 25.4154 66.8823 25.4154 65.5333V22.5C25.4151 21.1502 25.6575 19.8136 26.1285 18.5666C26.5995 17.3194 27.2901 16.1863 28.1607 15.2319C29.0314 14.2774 30.0649 13.5203 31.2024 13.004C32.34 12.4876 33.5592 12.2219 34.7904 12.2222C35.1249 12.2222 35.4492 12.2444 35.7634 12.2767H35.7847C38.0835 12.5507 40.2092 13.7456 41.754 15.632C43.2988 17.5184 44.1539 19.9649 44.1553 22.5Z" fill="url(#paint1_linear_1_27)"/>
<path d="M65.6925 10.2666V53.3111C65.6925 56.0354 64.7053 58.6482 62.9481 60.5746C61.1908 62.5011 58.8076 63.5833 56.3225 63.5833C53.8375 63.5833 51.4542 62.5011 49.697 60.5746C47.9398 58.6482 46.9526 56.0354 46.9526 53.3111V10.2666C46.9526 8.91742 47.1951 7.58148 47.6664 6.33514C48.1377 5.08881 48.8284 3.95653 49.6991 3.00303C50.5697 2.04954 51.6033 1.29354 52.7407 0.778244C53.878 0.26295 55.0969 -0.00152878 56.3276 -6.86336e-05C56.7143 -0.00443582 57.1006 0.0252895 57.483 0.0888201H57.5033C59.5641 0.362161 61.481 1.38752 62.9458 2.99993C63.8171 3.9536 64.5082 5.08634 64.9795 6.33329C65.4508 7.58022 65.6931 8.91684 65.6925 10.2666Z" fill="url(#paint2_linear_1_27)"/>
<path d="M87.1079 22.0099V65.0443C87.1079 66.3933 86.8655 67.7291 86.3946 68.9753C85.9237 70.2217 85.2335 71.354 84.3635 72.3079C83.4934 73.2618 82.4604 74.0184 81.3237 74.5347C80.1868 75.0509 78.9684 75.3165 77.738 75.3165C76.5075 75.3165 75.289 75.0509 74.1523 74.5347C73.0154 74.0184 71.9824 73.2618 71.1124 72.3079C70.2423 71.354 69.5521 70.2217 69.0813 68.9753C68.6104 67.7291 68.368 66.3933 68.368 65.0443V22.0099C68.3678 20.6601 68.6103 19.3237 69.0814 18.0766C69.5524 16.8296 70.243 15.6964 71.1135 14.7421C71.9842 13.7877 73.0177 13.0307 74.1552 12.5142C75.2927 11.9978 76.5118 11.732 77.743 11.7321C78.983 11.7266 80.2108 11.9992 81.3512 12.5332H81.3613C81.3666 12.5396 81.3738 12.5436 81.3816 12.5443C82.4972 13.0554 83.5098 13.8031 84.3613 14.7443C85.235 15.6957 85.9278 16.8279 86.3994 18.0751C86.8708 19.3223 87.1117 20.6598 87.1079 22.0099Z" fill="url(#paint3_linear_1_27)"/>
<g style="mix-blend-mode:multiply" opacity="0.3">
<path d="M22.7409 25.5887V56.2442C22.7152 58.9502 21.7166 61.5358 19.9621 63.4393C18.2076 65.343 15.8389 66.4107 13.3704 66.4107C10.902 66.4107 8.53323 65.343 6.77873 63.4393C5.02422 61.5358 4.02567 58.9502 4 56.2442V54.4776C4 54.4776 4.02027 54.732 4.06081 55.1987C4.08108 55.6764 4.14189 56.3776 4.24426 57.232C4.41693 58.2503 4.7167 59.2378 5.13514 60.1664C5.87496 61.8161 7.02692 63.2014 8.45694 64.1614C9.88695 65.1213 11.5362 65.6162 13.2128 65.5887C13.9732 65.58 14.7294 65.4642 15.4628 65.2442C17.0123 64.766 18.4093 63.8232 19.4966 62.522C20.6101 61.1981 21.3432 59.5441 21.6047 57.7664C21.625 57.5442 21.6757 57.3664 21.6858 57.1109L21.7274 56.3553C21.7466 55.9664 21.7365 55.3776 21.7466 54.8998C21.7466 53.8998 21.7568 52.8887 21.7669 51.8998C21.7669 49.9109 21.8277 47.9553 21.849 46.0553C21.9189 42.2664 22.0304 38.732 22.1622 35.6998C22.4064 29.6331 22.7409 25.5887 22.7409 25.5887Z" fill="black"/>
</g>
<g style="mix-blend-mode:overlay" opacity="0.6">
<path d="M17.8659 4.18889C17.5135 4.06296 17.1548 3.95909 16.7916 3.87778C15.8552 3.63983 14.8936 3.54264 13.9334 3.58889C13.6315 3.60124 13.3305 3.63464 13.0324 3.68889C12.7184 3.7312 12.4071 3.79428 12.1 3.87778C10.0092 4.39621 8.14454 5.68686 6.81858 7.53333C6.35635 8.15426 5.9681 8.83715 5.66318 9.56556C5.37206 10.2708 5.1512 11.0084 5.00439 11.7656C4.92983 12.1508 4.87535 12.5402 4.84121 12.9322L4.81081 13.2322C4.81081 13.2433 4.80067 13.41 4.79054 13.4878C4.7804 13.6878 4.77027 13.8878 4.75101 14.0767C4.70946 14.8544 4.63851 15.5878 4.5777 16.2656C4.45421 17.7789 4.2614 19.2846 4 20.7767V13.1989C4.00187 11.4167 4.42642 9.66571 5.23198 8.11773C6.03753 6.56977 7.1964 5.27803 8.59483 4.36933C9.99327 3.46063 11.5832 2.9662 13.2086 2.93457C14.834 2.90293 16.4389 3.33518 17.8659 4.18889Z" fill="white"/>
</g>
<g style="mix-blend-mode:multiply" opacity="0.3">
<path d="M44.1553 34.8432V65.5332C44.1553 66.8822 43.913 68.2179 43.442 69.4642C42.9711 70.7106 42.281 71.8429 41.4109 72.7968C40.5408 73.7507 39.5078 74.5072 38.3711 75.0236C37.2342 75.5398 36.0159 75.8054 34.7854 75.8054C33.5549 75.8054 32.3364 75.5398 31.1997 75.0236C30.0628 74.5072 29.0299 73.7507 28.1598 72.7968C27.2897 71.8429 26.5995 70.7106 26.1286 69.4642C25.6578 68.2179 25.4154 66.8822 25.4154 65.5332V64.2888C25.4154 64.2888 25.4357 64.5443 25.4762 65.0099C25.5121 65.6829 25.5969 66.3517 25.7296 67.0099C26.1873 69.2978 27.3507 71.3428 29.0235 72.7999C30.1075 73.7357 31.3732 74.3857 32.7229 74.6999C33.0678 74.7763 33.4163 74.832 33.7668 74.8666C34.1513 74.8956 34.537 74.903 34.9222 74.8888C35.6857 74.8429 36.4414 74.697 37.1732 74.4543C38.6891 73.9092 40.0411 72.9221 41.0844 71.5988C42.1542 70.2529 42.8382 68.591 43.0506 66.821C43.1104 66.3644 43.1442 65.9043 43.1519 65.4432L43.1621 63.9421C43.1621 62.9421 43.1722 61.9421 43.1833 60.9543C43.1833 58.9877 43.2431 57.0432 43.2644 55.1543C43.3344 51.3977 43.4458 47.8877 43.5776 44.8766C43.8208 38.8554 44.1553 34.8432 44.1553 34.8432Z" fill="black"/>
</g>
<g style="mix-blend-mode:overlay" opacity="0.6">
<path d="M35.7634 12.2767C35.6722 12.3 35.3175 12.3556 34.76 12.4444C34.4458 12.5333 34.0617 12.6 33.6452 12.7333C33.1802 12.8821 32.7234 13.0598 32.2769 13.2656C31.7646 13.5139 31.27 13.804 30.7972 14.1333C30.2866 14.5041 29.8021 14.9163 29.3479 15.3667C28.8841 15.8597 28.4633 16.399 28.0911 16.9778C27.7081 17.5649 27.382 18.1942 27.1181 18.8556C26.8611 19.5178 26.6645 20.2063 26.5313 20.9111C26.4633 21.2634 26.4122 21.6196 26.3783 21.9778L26.3276 22.51L26.3073 23.0889C26.2364 24.6111 26.1249 26.0322 25.9931 27.2556C25.8697 28.6256 25.6768 29.9869 25.4154 31.3333V22.5C25.4151 21.1502 25.6575 19.8136 26.1285 18.5666C26.5995 17.3194 27.2901 16.1863 28.1607 15.2319C29.0314 14.2774 30.0649 13.5203 31.2024 13.004C32.34 12.4876 33.5592 12.2219 34.7904 12.2222C35.1249 12.2222 35.4492 12.2444 35.7634 12.2767Z" fill="white"/>
</g>
<g style="mix-blend-mode:multiply" opacity="0.3">
<path d="M65.6925 14.6667V53.311C65.6925 56.0354 64.7053 58.6482 62.9481 60.5747C61.1908 62.501 58.8076 63.5833 56.3225 63.5833C53.8375 63.5833 51.4542 62.501 49.697 60.5747C47.9398 58.6482 46.9526 56.0354 46.9526 53.311V52.4444C46.9526 52.4444 46.9729 52.7222 47.0134 53.2444C47.0683 53.992 47.187 54.7322 47.3681 55.4556C47.6597 56.5576 48.1189 57.5977 48.7263 58.5322C49.4884 59.7256 50.4817 60.7197 51.635 61.4433C52.9739 62.2954 54.4957 62.7407 56.0438 62.7333C56.8644 62.7434 57.6817 62.616 58.4671 62.3554C59.2937 62.104 60.08 61.7142 60.7982 61.2C62.2925 60.1241 63.4466 58.5678 64.1023 56.7444L64.3354 56.0556L64.4975 55.3322C64.5583 55.0888 64.5685 54.8554 64.609 54.6222C64.6525 54.3694 64.6729 54.1127 64.6698 53.8554C64.7205 52.8554 64.6698 51.6444 64.68 50.5556C64.6901 48.3111 64.7002 46.0666 64.7205 43.8554C64.7205 41.6443 64.7813 39.4778 64.8016 37.3778C64.8725 33.1667 64.984 29.2443 65.1158 25.8777C65.358 19.1443 65.6925 14.6667 65.6925 14.6667Z" fill="black"/>
</g>
<g style="mix-blend-mode:overlay" opacity="0.6">
<path d="M57.483 0.0888201C57.3513 0.111042 57.0168 0.166598 56.5202 0.233264C56.2161 0.255486 55.8208 0.39882 55.3952 0.476598C54.9282 0.617907 54.4682 0.78516 54.0168 0.977709C53.4987 1.21443 52.9973 1.49298 52.5168 1.81104C51.9925 2.16243 51.4977 2.564 51.0381 3.01104C50.7938 3.23327 50.581 3.49993 50.359 3.74438C50.1563 4.03327 49.9222 4.28771 49.7398 4.58882C49.3437 5.16829 49.0072 5.79393 48.7364 6.45438C48.4566 7.10887 48.2425 7.79474 48.0979 8.49993C48.0573 8.85549 47.956 9.12215 47.9256 9.54438L47.8749 10.121L47.8648 10.2666V10.2777L47.8546 10.2877V10.3666L47.8445 10.6555C47.7735 12.1888 47.6621 13.6111 47.5303 14.8333C47.4072 16.2069 47.2143 17.5721 46.9526 18.9222V10.2666C46.9526 8.91742 47.1951 7.58148 47.6664 6.33514C48.1377 5.08881 48.8284 3.95653 49.6991 3.00303C50.5697 2.04954 51.6033 1.29354 52.7407 0.778244C53.878 0.26295 55.0969 -0.00152878 56.3276 -6.86336e-05C56.7143 -0.00443582 57.1006 0.0252895 57.483 0.0888201Z" fill="white"/>
</g>
<g style="mix-blend-mode:overlay" opacity="0.6">
<path d="M81.3512 12.5332C81.2599 12.5099 80.8951 12.4321 80.3174 12.3554C79.9829 12.311 79.5775 12.2877 79.1214 12.2766C78.6131 12.2744 78.1054 12.3082 77.6011 12.3777C77.0192 12.4727 76.4436 12.6097 75.8782 12.7877C75.2689 13.0031 74.6786 13.2787 74.1147 13.611C72.9096 14.334 71.8619 15.3348 71.0437 16.5443C70.6251 17.1498 70.2715 17.8059 69.9897 18.4999C69.7181 19.1709 69.5109 19.8709 69.3714 20.5888C69.2956 20.9508 69.2447 21.3184 69.2194 21.6888L69.189 21.9666L69.1789 22.0221L69.1687 22.0654L69.1586 22.211C69.1485 22.3999 69.1383 22.5777 69.1282 22.7666C69.0775 23.4999 69.0167 24.1999 68.9457 24.8332C68.8227 26.2694 68.6298 27.6973 68.368 29.111V22.0099C68.3678 20.6601 68.6103 19.3237 69.0814 18.0766C69.5524 16.8296 70.243 15.6964 71.1135 14.7421C71.9842 13.7877 73.0177 13.0307 74.1552 12.5142C75.2927 11.9978 76.5118 11.732 77.743 11.7321C78.983 11.7266 80.2108 11.9992 81.3512 12.5332Z" fill="white"/>
</g>
<g style="mix-blend-mode:multiply" opacity="0.3">
<path d="M87.1079 37.4444V65.0444C87.1079 66.3933 86.8655 67.7291 86.3946 68.9754C85.9237 70.2217 85.2335 71.3541 84.3635 72.308C83.4934 73.2618 82.4604 74.0184 81.3237 74.5347C80.1868 75.0509 78.9684 75.3167 77.738 75.3167C76.5075 75.3167 75.289 75.0509 74.1523 74.5347C73.0154 74.0184 71.9824 73.2618 71.1124 72.308C70.2423 71.3541 69.5521 70.2217 69.0813 68.9754C68.6104 67.7291 68.368 66.3933 68.368 65.0444C68.368 65.0444 68.3984 65.2778 68.4593 65.7222C68.4848 65.9857 68.5322 66.246 68.6011 66.5C68.6639 66.8516 68.752 67.197 68.8647 67.5333C69.3788 69.238 70.2991 70.761 71.5304 71.9449C72.7617 73.1287 74.2593 73.9302 75.868 74.2667C76.2025 74.3333 76.5167 74.3556 76.8511 74.4L77.4187 74.4111H77.7937L77.9255 74.3889C78.6402 74.3481 79.3479 74.2138 80.0336 73.9889C81.4511 73.5076 82.732 72.6349 83.7532 71.4544C84.2737 70.8481 84.7231 70.1729 85.091 69.4444C85.4403 68.706 85.7026 67.922 85.8714 67.1111C85.9618 66.7167 86.0262 66.3157 86.064 65.9111L86.1045 65.2222V65.0444L86.1147 64.9211V64.5777C86.1147 63.6443 86.1248 62.71 86.1349 61.7889C86.1349 59.9556 86.1957 58.1333 86.216 56.3889C86.287 52.8778 86.3984 49.6 86.5302 46.8C86.7734 41.1767 87.1079 37.4444 87.1079 37.4444Z" fill="black"/>
</g>
</g>
</g>
<defs>
<filter id="filter0_d_1_27" x="0" y="0" width="91.1079" height="83.8056" filterUnits="userSpaceOnUse" color-interpolation-filters="sRGB">
<feFlood flood-opacity="0" result="BackgroundImageFix"/>
<feColorMatrix in="SourceAlpha" type="matrix" values="0 0 0 0 0 0 0 0 0 0 0 0 0 0 0 0 0 0 127 0" result="hardAlpha"/>
<feOffset dy="4"/>
<feGaussianBlur stdDeviation="2"/>
<feComposite in2="hardAlpha" operator="out"/>
<feColorMatrix type="matrix" values="0 0 0 0 0 0 0 0 0 0 0 0 0 0 0 0 0 0 0.25 0"/>
<feBlend mode="normal" in2="BackgroundImageFix" result="effect1_dropShadow_1_27"/>
<feBlend mode="normal" in="SourceGraphic" in2="effect1_dropShadow_1_27" result="shape"/>
</filter>
<linearGradient id="paint0_linear_1_27" x1="13.3704" y1="1.72713" x2="13.3704" y2="59.7457" gradientUnits="userSpaceOnUse">
<stop stop-color="#10B981"/>
<stop offset="0.967" stop-color="#FAFF06"/>
</linearGradient>
<linearGradient id="paint1_linear_1_27" x1="34.7854" y1="13.176" x2="34.7854" y2="77.5859" gradientUnits="userSpaceOnUse">
<stop stop-color="#10B981"/>
<stop offset="0.0001" stop-color="#0EB77E"/>
<stop offset="0.979167" stop-color="#FAFF06"/>
</linearGradient>
<linearGradient id="paint2_linear_1_27" x1="56.3225" y1="1.71628" x2="56.3225" y2="59.8318" gradientUnits="userSpaceOnUse">
<stop stop-color="#65FF06"/>
<stop offset="0.967" stop-color="#FAFF06"/>
</linearGradient>
<linearGradient id="paint3_linear_1_27" x1="77.738" y1="13.1944" x2="77.738" y2="77.6057" gradientUnits="userSpaceOnUse">
<stop stop-color="#10B981"/>
<stop offset="1" stop-color="#FAFF06"/>
</linearGradient>
</defs>
</svg>
